<svg width="64" height="64" viewBox="0 0 64 64" fill="none" xmlns="http://www.w3.org/2000/svg">
<g filter="url(#filter0_d_7623_10982)">
<g clip-path="url(#clip0_7623_10982)">
<rect x="4" width="56" height="56" rx="14" fill="white"/>
<rect x="4" width="56" height="56" rx="14" fill="url(#paint0_linear_7623_10982)" fill-opacity="0.7"/>
<g filter="url(#filter1_d_7623_10982)">
<path d="M31.3808 16.5088C31.7652 15.8398 32.7303 15.8396 33.1149 16.5086L45.1493 37.4425C45.5301 38.105 45.0577 38.9323 44.2936 38.9394C42.6448 38.9546 40.6348 38.9699 38.4285 38.9821C38.0694 38.9841 37.7368 38.7932 37.5572 38.4823L28.4213 22.6602C28.2431 22.3515 28.2426 21.9712 28.4202 21.6621L31.3808 16.5088Z" fill="white"/>
<path d="M24.1405 29.2468C23.7826 29.2468 23.4519 29.4381 23.2735 29.7484L18.8435 37.455C18.4643 38.1147 18.9312 38.9387 19.692 38.9491C21.5011 38.9736 23.495 38.9891 25.5651 38.9977C25.9276 38.9993 26.2625 38.8042 26.4403 38.4882L30.7999 30.737C31.1748 30.0704 30.6931 29.2468 29.9283 29.2468H24.1405Z" fill="white"/>
</g>
</g>
</g>
<defs>
<filter id="filter0_d_7623_10982" x="0" y="0" width="64" height="64" filterUnits="userSpaceOnUse" color-interpolation-filters="sRGB">
<feFlood flood-opacity="0" result="BackgroundImageFix"/>
<feColorMatrix in="SourceAlpha" type="matrix" values="0 0 0 0 0 0 0 0 0 0 0 0 0 0 0 0 0 0 127 0" result="hardAlpha"/>
<feOffset dy="4"/>
<feGaussianBlur stdDeviation="2"/>
<feComposite in2="hardAlpha" operator="out"/>
<feColorMatrix type="matrix" values="0 0 0 0 0 0 0 0 0 0 0 0 0 0 0 0 0 0 0.25 0"/>
<feBlend mode="normal" in2="BackgroundImageFix" result="effect1_dropShadow_7623_10982"/>
<feBlend mode="normal" in="SourceGraphic" in2="effect1_dropShadow_7623_10982" result="shape"/>
</filter>
<filter id="filter1_d_7623_10982" x="14.709" y="16.007" width="34.5747" height="30.9908" filterUnits="userSpaceOnUse" color-interpolation-filters="sRGB">
<feFlood flood-opacity="0" result="BackgroundImageFix"/>
<feColorMatrix in="SourceAlpha" type="matrix" values="0 0 0 0 0 0 0 0 0 0 0 0 0 0 0 0 0 0 127 0" result="hardAlpha"/>
<feOffset dy="4"/>
<feGaussianBlur stdDeviation="2"/>
<feComposite in2="hardAlpha" operator="out"/>
<feColorMatrix type="matrix" values="0 0 0 0 0 0 0 0 0 0 0 0 0 0 0 0 0 0 0.05 0"/>
<feBlend mode="normal" in2="BackgroundImageFix" result="effect1_dropShadow_7623_10982"/>
<feBlend mode="normal" in="SourceGraphic" in2="effect1_dropShadow_7623_10982" result="shape"/>
</filter>
<linearGradient id="paint0_linear_7623_10982" x1="13.8823" y1="56.4706" x2="50.8042" y2="22.0572" gradientUnits="userSpaceOnUse">
<stop stop-color="#307CF4"/>
<stop offset="0.302083" stop-color="#863AF7"/>
<stop offset="0.640221" stop-color="#BC37E2"/>
<stop offset="1" stop-color="#EF615C"/>
</linearGradient>
<clipPath id="clip0_7623_10982">
<rect x="4" width="56" height="56" rx="14" fill="white"/>
</clipPath>
</defs>
</svg>
